<?xml version="1.0" encoding="UTF-8" standalone="no"?>
<!-- Created with Inkscape (http://www.inkscape.org/) -->

<svg
   width="128"
   height="128"
   viewBox="0 0 33.866667 33.866667"
   version="1.1"
   id="svg1"
   inkscape:version="1.4.3 (0d15f75042, 2025-12-25)"
   sodipodi:docname="org.gtk-rs.CheckIT.svg"
   xml:space="preserve"
   xmlns:inkscape="http://www.inkscape.org/namespaces/inkscape"
   xmlns:sodipodi="http://sodipodi.sourceforge.net/DTD/sodipodi-0.dtd"
   xmlns="http://www.w3.org/2000/svg"
   xmlns:svg="http://www.w3.org/2000/svg"><sodipodi:namedview
     id="namedview1"
     pagecolor="#ffffff"
     bordercolor="#000000"
     borderopacity="0.25"
     inkscape:showpageshadow="2"
     inkscape:pageopacity="0.0"
     inkscape:pagecheckerboard="true"
     inkscape:deskcolor="#d1d1d1"
     inkscape:document-units="mm"
     inkscape:zoom="5.6568543"
     inkscape:cx="28.195883"
     inkscape:cy="53.47495"
     inkscape:window-width="2554"
     inkscape:window-height="1397"
     inkscape:window-x="20"
     inkscape:window-y="20"
     inkscape:window-maximized="0"
     inkscape:current-layer="g6" /><defs
     id="defs1" /><g
     id="g6"
     inkscape:label="Ledger"
     transform="translate(3.4950883e-5,-0.03152865)"><rect
       style="fill:#13bcdd;fill-opacity:1;stroke-width:2.32802"
       id="rect1-7-2"
       width="16.933332"
       height="27.342566"
       x="16.933334"
       y="2.8061945"
       ry="3.1119239" /><rect
       style="display:inline;fill:#31dbfc;fill-opacity:1;stroke-width:2.32802"
       id="rect1-8"
       width="16.933332"
       height="27.342566"
       x="-3.7747583e-15"
       y="2.8061938"
       ry="3.1119239" /><rect
       style="fill:#37d0ee;fill-opacity:1;stroke-width:2.32802"
       id="rect1-7"
       width="16.933332"
       height="27.342566"
       x="16.933332"
       y="2.2404044"
       ry="3.1119239" /><rect
       style="fill:#37d0ee;fill-opacity:1;stroke-width:1.42638"
       id="rect1-7-9"
       width="6.597403"
       height="26.34598"
       x="13.63463"
       y="5.3491931"
       ry="2.9984999" /><rect
       style="fill:#68e5fd;fill-opacity:1;stroke-width:2.32802"
       id="rect1"
       width="16.933332"
       height="27.342566"
       x="-3.7747583e-15"
       y="2.2404048"
       ry="3.1119239" /><path
       id="rect1-7-9-7-4"
       style="fill:#95edfe;fill-opacity:1;stroke-width:0.621115"
       d="M 3.2985961,18.502988 V 5.3345662 h 5.3766586 c 0.6779396,0 2.3158113,-0.00506 2.3279413,-3.0941615 H 1.649298 3.1068688 c 0.3623901,0 -1.174392,-0.1328642 -2.15453984,0.8674073 C -0.02635503,4.0734013 -1.2043089e-6,5.0558897 -1.2043089e-6,5.5870726 V 21.331935 C 3.6154261,21.317426 3.2985961,19.26887 3.2985961,18.502988 Z"
       sodipodi:nodetypes="scsccscscs" /><path
       id="rect1-7-9-7-4-1-5"
       style="fill:#258da2;fill-opacity:1;stroke-width:0.621115"
       d="m 30.567997,17.27506 v 9.773684 h -4.24508 c -0.677939,0 -2.325755,-0.510709 -2.346726,3.100015 l 8.241104,-0.0059 h -1.457571 c -0.362391,0 1.174392,0.132865 2.154539,-0.867408 0.978686,-0.965588 0.952332,-1.948077 0.952332,-2.479261 V 14.446112 c -3.615428,0.01451 -3.298598,2.063065 -3.298598,2.828948 z"
       sodipodi:nodetypes="scsccscscs" /><path
       id="rect1-7-9-7-4-1"
       style="fill:#2fb1cb;fill-opacity:1;stroke-width:0.621115"
       d="m 30.567997,16.709269 v 9.773684 h -4.24508 c -0.677939,0 -2.315809,0.0051 -2.32794,3.094163 h 8.222318 -1.457571 c -0.362391,0 1.174392,0.132864 2.154539,-0.867409 0.978686,-0.965588 0.952332,-1.948078 0.952332,-2.47926 0,0 0,-9.967306 0,-12.350125 -3.615428,0.01451 -3.298598,2.063065 -3.298598,2.828947 z"
       sodipodi:nodetypes="scsccscscs" /><g
       id="g5"
       transform="matrix(0.83971942,0,0,1.0692086,-1.8515604,-3.6603265)"
       style="display:inline"
       inkscape:label="Notes"><rect
         style="fill:#008aa9;fill-opacity:1;stroke:none;stroke-width:0.813095;stroke-opacity:1"
         id="rect4"
         width="9.5943823"
         height="1.5494032"
         x="4.7510009"
         y="10.225946"
         ry="0.7747016" /><rect
         style="display:inline;fill:#008aa9;fill-opacity:1;stroke:none;stroke-width:0.516878;stroke-opacity:1"
         id="rect4-85-0-6"
         width="3.877135"
         height="1.5494032"
         x="15.663553"
         y="-21.514673"
         ry="0.7747016"
         rx="0.89332002"
         transform="scale(1,-1)" /><rect
         style="display:inline;fill:#008aa9;fill-opacity:1;stroke:none;stroke-width:0.516878;stroke-opacity:1"
         id="rect4-85-0-6-0"
         width="3.877135"
         height="1.5494032"
         x="15.663553"
         y="-26.384335"
         ry="0.7747016"
         rx="0.89332002"
         transform="scale(1,-1)" /><rect
         style="display:inline;fill:#008aa9;fill-opacity:1;stroke:none;stroke-width:0.813095;stroke-opacity:1"
         id="rect4-62"
         width="9.5943823"
         height="1.5494032"
         x="4.7510009"
         y="15.095609"
         ry="0.7747016" /><rect
         style="display:inline;fill:#008aa9;fill-opacity:1;stroke:none;stroke-width:0.813095;stroke-opacity:1"
         id="rect4-62-9"
         width="9.5943823"
         height="1.5494032"
         x="4.7510004"
         y="19.965271"
         ry="0.7747016" /><rect
         style="display:inline;fill:#008aa9;fill-opacity:1;stroke:none;stroke-width:0.813095;stroke-opacity:1"
         id="rect4-62-9-1"
         width="9.5943823"
         height="1.5494032"
         x="4.7510009"
         y="24.83493"
         ry="0.7747016" /><rect
         style="display:inline;fill:#008aa9;fill-opacity:1;stroke:none;stroke-width:0.516878;stroke-opacity:1"
         id="rect4-85"
         width="3.877135"
         height="1.5494032"
         x="15.663553"
         y="10.225946"
         ry="0.7747016"
         rx="0.89332002" /><rect
         style="display:inline;fill:#008aa9;fill-opacity:1;stroke:none;stroke-width:0.516878;stroke-opacity:1"
         id="rect4-85-0"
         width="3.877135"
         height="1.5494032"
         x="15.663553"
         y="15.095609"
         ry="0.7747016"
         rx="0.89332002" /></g><g
       id="g4"
       transform="matrix(0.40802438,0,0,0.40802438,-5.076296,9.2846589)"
       style="display:inline"
       inkscape:label="lock"><path
         id="rect2-9"
         style="display:inline;fill:#00677e;fill-opacity:1;stroke-width:3.04805"
         d="m 66.598933,14.741913 c -1.739586,0 -3.13994,1.32222 -3.13994,2.96475 v 11.577633 c 0,1.64253 1.400354,2.96475 3.13994,2.96475 h 12.261783 c 1.739595,0 3.140422,-1.32222 3.140422,-2.96475 V 17.706663 c 0,-1.64253 -1.400827,-2.96475 -3.140422,-2.96475 z"
         sodipodi:nodetypes="sssssssss" /><rect
         style="display:inline;fill:none;fill-opacity:1;stroke:#008aa9;stroke-width:2.93408;stroke-opacity:1"
         id="rect3"
         width="12.806637"
         height="19.310741"
         x="66.26899"
         y="-1.9983379"
         ry="4.2131853" /><path
         id="rect2-9-6"
         style="display:inline;fill:#37d0ee;fill-opacity:1;stroke-width:1.62722"
         d="m 63.200885,8.3514748 c -0.928692,0 -1.676282,0.7058775 -1.676282,1.5827565 v 6.1808097 c 0,0.876877 0.74759,1.582755 1.676282,1.582755 h 6.54605 c 0.928697,0 1.676539,-0.705878 1.676539,-1.582755 V 9.9342313 c 0,-0.876879 -0.747842,-1.5827565 -1.676539,-1.5827565 z"
         sodipodi:nodetypes="sssssssss" /><path
         id="rect2"
         style="display:inline;fill:#008aa9;fill-opacity:1;stroke-width:3.38349"
         d="m 66.059017,13.355257 c -1.876396,0 -3.386873,1.510478 -3.386873,3.386874 v 13.226066 c 0,1.876395 1.510477,3.386873 3.386873,3.386873 h 13.226066 c 1.876396,0 3.38739,-1.510478 3.38739,-3.386873 V 16.742131 c 0,-1.876396 -1.510994,-3.386874 -3.38739,-3.386874 z m 6.613033,6.597014 a 2.1139628,2.1756841 0 0 1 2.1146,2.176094 2.1139628,2.1756841 0 0 1 -0.680062,1.597835 v 1.596802 c 0,0.794689 -0.639849,1.435055 -1.434538,1.435055 -0.79469,0 -1.434021,-0.640366 -1.434021,-1.435055 V 23.7262 a 2.1139628,2.1756841 0 0 1 -0.680062,-1.597835 2.1139628,2.1756841 0 0 1 2.114083,-2.176094 z" /><rect
         style="fill:#008aa9;fill-opacity:1;stroke:none;stroke-width:7.67446;stroke-opacity:1"
         id="rect6"
         width="2.9340789"
         height="3.4854178"
         x="64.801949"
         y="6.7654142"
         ry="1.4670395" /></g></g></svg>
